<svg width="56" height="40" viewBox="0 0 56 40" fill="none" xmlns="http://www.w3.org/2000/svg">
<path d="M55.0777 1.72431C54.9173 1.40351 54.6968 1.12281 54.4562 0.902256C54.0752 0.561404 53.6341 0.320802 53.173 0.200501C52.7118 0.0601504 52.2306 0 51.7293 0C51.4085 0 51.0877 0.0200538 50.7669 0.0601541L3.78948 6.23559C3.30827 6.29574 2.84712 6.39599 2.42607 6.53634C1.80451 6.75689 1.22306 7.0777 0.761906 7.5589C0.521304 7.7995 0.340852 8.10025 0.200501 8.4411C0.0601504 8.76191 0 9.12281 0 9.48371C0 9.82457 0.0601522 10.1654 0.180453 10.4862C0.340854 10.9474 0.601504 11.3684 0.902256 11.7494C1.20301 12.1303 1.58396 12.4712 2.00501 12.812L7.81955 17.3233C8.2406 17.6441 8.68171 18.1053 9.10276 18.6466C9.72432 19.4687 10.2857 20.4712 10.6667 21.4737C11.0476 22.4762 11.2682 23.4988 11.2682 24.3008L11.3484 36.2907C11.3484 36.6717 11.3684 37.0326 11.3885 37.3534C11.4085 37.594 11.4286 37.8145 11.4687 38.015C11.4887 38.1754 11.5288 38.3158 11.5689 38.4762C11.6291 38.7168 11.7093 38.9574 11.9298 39.2581C12.0301 39.4185 12.1905 39.579 12.4311 39.7394C12.6717 39.8998 13.0125 40 13.3534 40C13.7343 40 14.0551 39.8797 14.2757 39.7394C14.3158 39.7193 14.3358 39.6993 14.3559 39.6792L14.3759 39.6993L26.1855 31.0577L26.8672 31.579C28.0501 32.4812 29.4737 32.9023 30.8572 32.9023C31.8597 32.9023 32.8822 32.6817 33.7845 32.2206C34.7068 31.7795 35.5288 31.0977 36.1704 30.2356L54.2356 5.95489C54.5765 5.49374 54.8572 5.01253 55.0577 4.53133C55.2582 4.05013 55.3785 3.54887 55.3785 3.00752C55.3785 2.60652 55.2782 2.14536 55.0777 1.72431ZM32.381 29.4336C31.8998 29.6742 31.3584 29.7945 30.8371 29.7945C30.0952 29.7945 29.3734 29.5739 28.7519 29.0927L23.0176 24.782C22.9173 24.7018 22.797 24.6416 22.6767 24.5614L49.5439 6.9975L33.6441 28.391C33.3033 28.8521 32.8622 29.193 32.381 29.4336ZM14.396 24.3008C14.396 23.4386 14.2556 22.5564 14.015 21.6742C13.7343 20.6516 13.3133 19.6291 12.792 18.6667L12.9724 18.6065L42.5664 7.81955L18.9273 23.2782L17.4837 24.2206L17.4236 24.2607L16.6216 24.9023C15.9198 25.584 15.4185 26.4662 15.1378 27.4887L14.4361 30.0551L14.396 24.3008ZM9.72431 14.8571L3.90978 10.3459C3.54887 10.0652 3.30827 9.80451 3.20802 9.64411C3.20802 9.64411 3.20802 9.64411 3.20802 9.62406C3.24812 9.60401 3.26817 9.58396 3.32832 9.56391C3.50877 9.48371 3.80953 9.40351 4.19048 9.36341L43.2481 4.23058L10.9474 16C10.5464 15.599 10.1454 15.198 9.72431 14.8571ZM16.5414 34.2456L18.1654 28.2907C18.3459 27.6692 18.6065 27.2682 18.8672 27.0476C19.1278 26.8271 19.3885 26.7268 19.7093 26.7268C20.0702 26.7268 20.5514 26.8672 21.1128 27.2882L23.5389 29.1128L16.5414 34.2456Z" fill="url(#paint0_linear_2_403)"/>
<defs>
<linearGradient id="paint0_linear_2_403" x1="1.16997" y1="-1.27019e-05" x2="54.8762" y2="4.27427" gradientUnits="userSpaceOnUse">
<stop offset="0.206287" stop-color="#4F9CFF"/>
<stop offset="0.940271" stop-color="#A483E2"/>
</linearGradient>
</defs>
</svg>
